<svg width="52" height="52" viewBox="0 0 52 52" fill="none" xmlns="http://www.w3.org/2000/svg"><mask id="prefixc67812d8path-1-inside-1_20741_4770" fill="white"><path fill-rule="evenodd" clip-rule="evenodd" d="M26 52C40.3594 52 52 40.3594 52 26C52 11.6406 40.3594 0 26 0C11.6406 0 0 11.6406 0 26C0 40.3594 11.6406 52 26 52ZM26 50C39.2548 50 50 39.2548 50 26C50 12.7452 39.2548 1.99999 26 1.99999C12.7452 1.99999 1.99999 12.7452 1.99999 26C1.99999 39.2548 12.7452 50 26 50Z"/></mask><path d="M50.5 26C50.5 39.531 39.531 50.5 26 50.5V53.5C41.1878 53.5 53.5 41.1878 53.5 26H50.5ZM26 1.5C39.531 1.5 50.5 12.469 50.5 26H53.5C53.5 10.8122 41.1878 -1.5 26 -1.5V1.5ZM1.5 26C1.5 12.469 12.469 1.5 26 1.5V-1.5C10.8122 -1.5 -1.5 10.8122 -1.5 26H1.5ZM26 50.5C12.469 50.5 1.5 39.531 1.5 26H-1.5C-1.5 41.1878 10.8122 53.5 26 53.5V50.5ZM48.5 26C48.5 38.4264 38.4264 48.5 26 48.5V51.5C40.0833 51.5 51.5 40.0833 51.5 26H48.5ZM26 3.49999C38.4264 3.49999 48.5 13.5736 48.5 26H51.5C51.5 11.9167 40.0833 0.499995 26 0.499995V3.49999ZM3.49999 26C3.49999 13.5736 13.5736 3.49999 26 3.49999V0.499995C11.9167 0.499995 0.499995 11.9167 0.499995 26H3.49999ZM26 48.5C13.5736 48.5 3.49999 38.4264 3.49999 26H0.499995C0.499995 40.0833 11.9167 51.5 26 51.5V48.5Z" fill="url(#prefixc67812d8paint0_radial_20741_4770)" mask="url(#prefixc67812d8path-1-inside-1_20741_4770)"/><path d="M50.5 26C50.5 39.531 39.531 50.5 26 50.5V53.5C41.1878 53.5 53.5 41.1878 53.5 26H50.5ZM26 1.5C39.531 1.5 50.5 12.469 50.5 26H53.5C53.5 10.8122 41.1878 -1.5 26 -1.5V1.5ZM1.5 26C1.5 12.469 12.469 1.5 26 1.5V-1.5C10.8122 -1.5 -1.5 10.8122 -1.5 26H1.5ZM26 50.5C12.469 50.5 1.5 39.531 1.5 26H-1.5C-1.5 41.1878 10.8122 53.5 26 53.5V50.5ZM48.5 26C48.5 38.4264 38.4264 48.5 26 48.5V51.5C40.0833 51.5 51.5 40.0833 51.5 26H48.5ZM26 3.49999C38.4264 3.49999 48.5 13.5736 48.5 26H51.5C51.5 11.9167 40.0833 0.499995 26 0.499995V3.49999ZM3.49999 26C3.49999 13.5736 13.5736 3.49999 26 3.49999V0.499995C11.9167 0.499995 0.499995 11.9167 0.499995 26H3.49999ZM26 48.5C13.5736 48.5 3.49999 38.4264 3.49999 26H0.499995C0.499995 40.0833 11.9167 51.5 26 51.5V48.5Z" fill="url(#prefixc67812d8paint1_radial_20741_4770)" mask="url(#prefixc67812d8path-1-inside-1_20741_4770)"/><defs><radialGradient id="prefixc67812d8paint0_radial_20741_4770" cx="0" cy="0" r="1" gradientUnits="userSpaceOnUse" gradientTransform="translate(52) rotate(135) scale(73.5391 111.3)"><stop stop-color="#48CCE0"/><stop offset="0.288462" stop-color="#428BEB"/><stop offset="0.601763" stop-color="#505ADD"/></radialGradient><radialGradient id="prefixc67812d8paint1_radial_20741_4770" cx="0" cy="0" r="1" gradientUnits="userSpaceOnUse" gradientTransform="translate(-4.3963e-06 52) scale(52 147.516)"><stop stop-color="#FCAB14"/><stop offset="0.159058" stop-color="#FA6641"/><stop offset="0.402081" stop-color="#BE40C0"/><stop offset="1" stop-color="#505ADD" stop-opacity="0"/></radialGradient></defs></svg>