<svg width="32" height="32" viewBox="0 0 32 32" fill="none" xmlns="http://www.w3.org/2000/svg"><g clip-path="url(#prefixfff61bf3clip0_13467_1)"><rect width="32" height="32" rx="8" fill="#191B26"/><path fill-rule="evenodd" clip-rule="evenodd" d="M31.9999 16.1773V16.0005V15.8244C24.9151 15.61 21.6752 15.4332 19.0912 12.9093C16.5681 10.3259 16.3906 7.0861 16.1768 0.000976562H15.9999H15.8231C15.6093 7.0861 15.4319 10.3259 12.9087 12.9093C10.3247 15.4332 7.0848 15.61 0 15.8244V16.0005V16.1773C7.0848 16.3917 10.3247 16.5685 12.9087 19.0917C15.4319 21.6758 15.6093 24.9156 15.8231 32.0007H15.9999H16.1768C16.3906 24.9156 16.5681 21.6758 19.0912 19.0917C21.6752 16.5685 24.9151 16.3917 31.9999 16.1773Z" fill="white"/></g><defs><clipPath id="prefixfff61bf3clip0_13467_1"><rect width="32" height="32" fill="white"/></clipPath></defs></svg>