<svg width="32" height="32" viewBox="0 0 32 32" fill="none" xmlns="http://www.w3.org/2000/svg"><path d="M25.9048 0H6.09524C2.72893 0 0 2.72893 0 6.09524V25.9048C0 29.2711 2.72893 32 6.09524 32H25.9048C29.2711 32 32 29.2711 32 25.9048V6.09524C32 2.72893 29.2711 0 25.9048 0Z" fill="#2CA5E0"/><path d="M7.30842 15.4456L17.9707 11.0525C19.0232 10.5949 22.5927 9.13065 22.5927 9.13065C22.5927 9.13065 24.2401 8.49006 24.1027 10.0458C24.057 10.6864 23.6911 12.9287 23.3248 15.3539L22.1809 22.5381C22.1809 22.5381 22.0893 23.5906 21.31 23.7736C20.5308 23.9567 19.2508 23.1331 19.0222 22.9499C18.8392 22.8127 15.5901 20.7535 14.4002 19.7468C14.0798 19.4723 13.7138 18.923 14.446 18.2825C16.0934 16.7724 18.0612 14.8961 19.2508 13.7064C19.8 13.1573 20.3491 11.876 18.0611 13.432L11.6088 17.7792C11.6088 17.7792 10.8765 18.2368 9.50381 17.825C8.13108 17.4132 6.52943 16.8641 6.52943 16.8641C6.52943 16.8641 5.43114 16.1777 7.30736 15.4457L7.30842 15.4456Z" fill="white"/></svg>