<svg width="159" height="30" viewBox="0 0 159 30" fill="none" xmlns="http://www.w3.org/2000/svg"><path d="M1.06006 4.28027H14.7146V25.0005H11.1072V7.08273H4.66747V25.0005H1.06006V4.28027Z" fill="#0D0D0D"/><path d="M19.5925 29.6216C18.8969 29.6216 18.4 29.5322 18.1019 29.3533C17.8037 29.1943 17.6547 29.1148 17.6547 29.1148V26.2229C17.8534 26.4216 18.0919 26.5707 18.3702 26.6701C18.6484 26.7695 18.9466 26.8192 19.2646 26.8192C19.7615 26.8192 20.159 26.7098 20.4571 26.4912C20.7553 26.2924 21.0037 26.0142 21.2025 25.6564L16.0448 10.0044H19.7714L23.0807 21.2739L26.39 10.0044H29.8185L25.1378 24.1956C24.6409 25.726 24.0049 27.008 23.2298 28.0415C22.4546 29.0949 21.2422 29.6216 19.5925 29.6216Z" fill="#0D0D0D"/><path d="M42.4568 12.8069H38.2829V25.0005H34.7351V12.8069H30.5613V10.0044H42.4568V12.8069Z" fill="#0D0D0D"/><path d="M54.9873 23.9869C54.4705 24.3446 53.7947 24.6527 52.9599 24.9111C52.1252 25.1695 51.1413 25.2987 50.0084 25.2987C47.7625 25.2987 46.0134 24.6627 44.7613 23.3906C43.529 22.0987 42.9129 20.1509 42.9129 17.5472C42.9129 16.4143 43.042 15.3708 43.3004 14.4168C43.5588 13.4429 43.9464 12.6181 44.4631 11.9423C44.9998 11.2467 45.6656 10.7001 46.4606 10.3026C47.2755 9.90506 48.2196 9.7063 49.2929 9.7063C51.0618 9.7063 52.473 10.2529 53.5264 11.346C54.5997 12.4392 55.1363 14.2876 55.1363 16.8913V18.7696H46.5799C46.6594 20.0217 46.9774 20.9559 47.5339 21.572C48.0904 22.1881 49.0146 22.4962 50.3066 22.4962C51.1612 22.4962 52.0159 22.3571 52.8705 22.0788C53.7252 21.8006 54.4307 21.4726 54.9873 21.095V23.9869ZM49.2333 12.5088C48.3786 12.5088 47.7327 12.8168 47.2954 13.433C46.8582 14.0491 46.6196 14.9534 46.5799 16.146H51.5289V15.8478C51.5289 14.9137 51.36 14.1286 51.0221 13.4926C50.7041 12.8367 50.1078 12.5088 49.2333 12.5088Z" fill="#0D0D0D"/><path d="M57.5132 25.0005V10.0044H61.061V22.1981H64.9368V10.0044H68.4845V22.1981H72.3603V10.0044H75.9081V25.0005H57.5132Z" fill="#0D0D0D"/><path d="M90.3615 23.9869C89.8447 24.3446 89.1689 24.6527 88.3342 24.9111C87.4994 25.1695 86.5155 25.2987 85.3826 25.2987C83.1367 25.2987 81.3877 24.6627 80.1355 23.3906C78.9032 22.0987 78.2871 20.1509 78.2871 17.5472C78.2871 16.4143 78.4163 15.3708 78.6746 14.4168C78.933 13.4429 79.3206 12.6181 79.8374 11.9423C80.374 11.2467 81.0398 10.7001 81.8349 10.3026C82.6497 9.90506 83.5938 9.7063 84.6671 9.7063C86.436 9.7063 87.8472 10.2529 88.9006 11.346C89.9739 12.4392 90.5105 14.2876 90.5105 16.8913V18.7696H81.9541C82.0336 20.0217 82.3516 20.9559 82.9081 21.572C83.4647 22.1881 84.3889 22.4962 85.6808 22.4962C86.5354 22.4962 87.3901 22.3571 88.2447 22.0788C89.0994 21.8006 89.8049 21.4726 90.3615 21.095V23.9869ZM84.6075 12.5088C83.7528 12.5088 83.1069 12.8168 82.6696 13.433C82.2324 14.0491 81.9939 14.9534 81.9541 16.146H86.9031V15.8478C86.9031 14.9137 86.7342 14.1286 86.3963 13.4926C86.0783 12.8367 85.482 12.5088 84.6075 12.5088Z" fill="#0D0D0D"/><path d="M99.4436 25.2987C97.0784 25.2987 95.3095 24.6229 94.1368 23.2714C92.984 21.9198 92.4076 20.0018 92.4076 17.5174C92.4076 16.3845 92.5567 15.341 92.8548 14.387C93.153 13.4131 93.5803 12.5883 94.1368 11.9125C94.7132 11.2168 95.4287 10.6802 96.2834 10.3026C97.1579 9.90506 98.1616 9.7063 99.2945 9.7063C100.169 9.7063 100.924 9.77587 101.56 9.91499C102.216 10.0541 102.733 10.2231 103.111 10.4218V13.433C102.753 13.2143 102.256 13.0056 101.62 12.8069C101.004 12.6081 100.358 12.5088 99.6821 12.5088C98.5293 12.5088 97.6349 12.9261 96.9989 13.7609C96.3828 14.5957 96.0747 15.818 96.0747 17.428C96.0747 18.9782 96.3529 20.2105 96.9095 21.1248C97.4858 22.0391 98.4001 22.4962 99.6523 22.4962C100.388 22.4962 101.034 22.4068 101.59 22.2279C102.167 22.049 102.673 21.8006 103.111 21.4826V24.3745C102.673 24.6925 102.157 24.921 101.56 25.0602C100.964 25.2192 100.258 25.2987 99.4436 25.2987Z" fill="#0D0D0D"/><path d="M116.35 12.8069H112.176V25.0005H108.628V12.8069H104.454V10.0044H116.35V12.8069Z" fill="#0D0D0D"/><path d="M124.353 25.0005H118.45V10.0044H124.413C126.043 10.0044 127.275 10.3224 128.11 10.9585C128.964 11.5945 129.392 12.5485 129.392 13.8205C129.392 14.7149 129.153 15.4503 128.676 16.0267C128.199 16.5832 127.563 16.9708 126.768 17.1894C127.762 17.3683 128.537 17.746 129.093 18.3224C129.67 18.8987 129.958 19.6739 129.958 20.6478C129.958 22.0788 129.461 23.1621 128.467 23.8974C127.474 24.6328 126.102 25.0005 124.353 25.0005ZM123.906 12.6876H121.998V16.0267H123.787C124.462 16.0267 124.979 15.8777 125.337 15.5795C125.715 15.2814 125.903 14.8739 125.903 14.3572C125.903 13.8007 125.724 13.3833 125.367 13.105C125.029 12.8268 124.542 12.6876 123.906 12.6876ZM123.966 18.6205H121.998V22.3173H123.966C124.681 22.3173 125.247 22.1683 125.665 21.8701C126.082 21.572 126.291 21.0851 126.291 20.4093C126.291 19.7931 126.092 19.3459 125.695 19.0677C125.297 18.7696 124.721 18.6205 123.966 18.6205Z" fill="#0D0D0D"/><path d="M132.338 10.0044H135.796V19.2764L141.282 10.0044H144.352V25.0005H140.894V15.7286L135.408 25.0005H132.338V10.0044Z" fill="#0D0D0D"/><path d="M146.288 25.0005L149.657 19.336C148.703 19.018 147.968 18.5012 147.451 17.7857C146.934 17.0503 146.676 16.1162 146.676 14.9833C146.676 13.3733 147.232 12.1411 148.345 11.2864C149.458 10.4318 150.88 10.0044 152.609 10.0044H158.035V25.0005H154.487V20.1112H152.788L149.925 25.0005H146.288ZM152.877 12.8069C152.102 12.8069 151.476 12.9858 150.999 13.3435C150.522 13.7013 150.283 14.2876 150.283 15.1025C150.283 15.9572 150.502 16.5733 150.939 16.9509C151.376 17.3286 151.993 17.5174 152.788 17.5174H154.487V12.8069H152.877Z" fill="#0D0D0D"/></svg>